<?xml version="1.0" standalone="no"?>
<!DOCTYPE svg PUBLIC "-//W3C//DTD SVG 20010904//EN"
 "http://www.w3.org/TR/2001/REC-SVG-20010904/DTD/svg10.dtd">
<svg version="1.0" xmlns="http://www.w3.org/2000/svg"
 viewBox="0 0 256.000000 256.000000"
 preserveAspectRatio="xMidYMid meet" >
<metadata>
Created by potrace 1.15, written by Peter Selinger 2001-2017
</metadata>
<g class="item-icon"  transform="translate(0.000000,256.000000) scale(0.100000,-0.100000)"
fill="#000000" stroke="none">
<path d="M2248 2462 l-286 -97 -592 -650 c-326 -357 -601 -659 -611 -671 -19
-21 -19 -21 66 -77 73 -49 93 -69 142 -142 56 -85 56 -85 77 -66 12 10 314
285 671 611 l650 592 98 291 c53 161 97 295 97 299 0 14 -21 8 -312 -90z"/>
<path d="M317 1112 l-67 -67 134 -134 134 -133 -155 -197 c-153 -193 -156
-196 -200 -203 -97 -15 -163 -91 -163 -187 0 -118 73 -191 190 -191 97 0 173
66 188 163 7 44 10 47 203 199 l196 156 134 -134 134 -134 67 67 67 68 -164
233 -163 233 -227 160 c-125 87 -230 161 -234 163 -4 3 -38 -25 -74 -62z"/>
</g>
</svg>
