<svg height="480pt" viewBox="0 0 480 480" width="480pt" xmlns="http://www.w3.org/2000/svg"><path d="m144 416.015625v-48c-8.320312 1.015625-16.519531 2.855469-24.480469 5.488281l-7.519531 2.511719v72c17.671875 0 32-14.328125 32-32zm0 0" fill="#898890"/><path d="m208 448.015625v-72l-7.519531-2.480469c-7.957031-2.644531-16.160157-4.492187-24.480469-5.519531v48c0 17.671875 14.328125 32 32 32zm0 0" fill="#898890"/><path d="m312 168.015625c-.152344 52.957031-43.042969 95.847656-96 96h-96c-52.875-.34375-95.65625-43.125-96-96-.015625-9.410156 1.386719-18.769531 4.160156-27.761719 7.238282-23.949218 23.542969-44.128906 45.441406-56.238281l30.398438-76 25.601562 64h76.796876l25.601562-64 30.398438 76c21.898437 12.109375 38.203124 32.289063 45.441406 56.238281 2.773437 8.992188 4.175781 18.351563 4.160156 27.761719zm0 0" fill="#acabb1"/><path d="m144 144.015625c0 13.253906-10.746094 24-24 24s-24-10.746094-24-24 10.746094-24 24-24 24 10.746094 24 24zm0 0" fill="#ab2300"/><path d="m240 144.015625c0 13.253906-10.746094 24-24 24s-24-10.746094-24-24 10.746094-24 24-24 24 10.746094 24 24zm0 0" fill="#ab2300"/><path d="m294.449219 224.230469 5.054687-9.015625c4.414063-7.867188 7.726563-16.308594 9.839844-25.078125l1.480469-6.121094h.800781v-12.257813l3.535156-2.453124 87.679688-59.050782c13.261718-8.878906 21.203125-23.800781 21.160156-39.757812v-46.480469c0-8.835937 7.164062-16 16-16h16c8.636719-.039063 15.730469 6.808594 16 15.441406 0 .980469-1.601562 23.949219-4.039062 47.535157-3.722657 38.636718-24.824219 73.480468-57.335938 94.679687l-97.304688 63.542969zm0 0" fill="#898890"/><path d="m256 472.015625c-26.5-.027344-47.972656-21.5-48-48v-47.441406l-1.246094-.984375-6.195312-2.0625c-8.140625-2.671875-16.527344-4.519532-25.039063-5.511719l-.488281-.046875c-18.65625-2.171875-37.558594-.277344-55.414062 5.550781l-6.304688 2.078125-1.113281.921875h-.121094v.441407l-.078125.246093v46.808594c0 26.507813-21.492188 48-48 48s-48-21.492187-48-48v-112c-.054688-29.796875 20.574219-55.640625 49.640625-62.191406l3.121094-.722657 2.742187 1.601563c14.683594 8.691406 31.429688 13.289063 48.496094 13.3125h96c14.984375.011719 29.761719-3.53125 43.113281-10.335937l3.328125-1.6875 3.429688 1.472656c1.320312.566406 2.640625 1.214844 4.058594 1.972656 2.035156 1.058594 3.992187 2.25 5.863281 3.578125 17.664062 11.847656 28.246093 31.730469 28.207031 53v112c-.027344 26.5-21.5 47.972656-48 48zm0 0" fill="#acabb1"/><path d="m456 .015625h-16c-13.253906 0-24 10.746094-24 24v46.480469c.023438 13.300781-6.605469 25.730468-17.664062 33.121094l-78.992188 53.199218c-.394531-3.652344-.980469-7.28125-1.757812-10.871094l10.300781-2.761718c4.25-1.160156 6.765625-5.53125 5.625-9.785156-1.136719-4.253907-5.5-6.789063-9.757813-5.671876l-10.777344 2.890626c-8.425781-21.878907-23.992187-40.273438-44.175781-52.203126l-29.367187-73.375c-1.214844-3.042968-4.160156-5.039062-7.433594-5.039062s-6.21875 1.996094-7.433594 5.039062l-23.582031 58.976563h-65.96875l-23.582031-58.976563c-1.214844-3.042968-4.160156-5.039062-7.433594-5.039062s-6.21875 1.996094-7.433594 5.039062l-29.367187 73.375c-20.191407 11.921876-35.765625 30.3125-44.199219 52.191407l-10.777344-2.886719c-4.277344-1.136719-8.667968 1.414062-9.800781 5.691406-1.136719 4.28125 1.410156 8.667969 5.691406 9.804688l10.300781 2.761718c-1.585937 7.238282-2.398437 14.628907-2.414062 22.039063 0 2.703125.199219 5.351563.40625 8h-8.40625c-4.417969 0-8 3.582031-8 8s3.582031 8 8 8h10.902344c2.242187 9.488281 5.816406 18.609375 10.617187 27.097656l-21.40625 5.703125c-3.894531 1.023438-6.417969 4.785156-5.894531 8.777344.523438 3.988281 3.929688 6.96875 7.957031 6.957031.699219 0 1.398438-.09375 2.070313-.28125l26.785156-7.199219c3.75 4.632813 7.890625 8.933594 12.375 12.855469-26.363281 11.390625-43.429688 37.371094-43.40625 66.089844v112c.027344 24.523437 16.007812 46.179687 39.4375 53.433594 23.429688 7.253906 48.851562-1.582031 62.730469-21.800781.59375.195312 1.207031.316406 1.832031.367187 22.082031-.027344 39.972656-17.917969 40-40v-40.726563c5.328125-.355468 10.671875-.355468 16 0v40.726563c.027344 22.082031 17.917969 39.972656 40 40 .625-.050781 1.238281-.171875 1.832031-.367187 13.878907 20.21875 39.300781 29.054687 62.730469 21.800781 23.429688-7.253907 39.410156-28.910157 39.4375-53.433594v-112c.011719-21.417969-9.558594-41.71875-26.089844-55.335937l28.800782-18.800782 9.050781 2.402344c.671875.183594 1.371093.277344 2.070312.277344 3.621094-.003906 6.785157-2.4375 7.71875-5.933594.710938-2.753906-.117187-5.675781-2.167969-7.648438l83.648438-54.617187c34.542969-22.53125 56.976562-59.535156 60.96875-100.585937 2.398438-24.558594 4-46.957032 4-47.757813 0-13.253906-10.746094-24-24-24zm-376.273438 213.929687c-1.140624-4.269531-5.53125-6.804687-9.796874-5.65625l-24.320313 6.519532c-4.472656-7.070313-7.910156-14.746094-10.203125-22.792969h36.59375c4.417969 0 8-3.582031 8-8s-3.582031-8-8-8h-39.59375c-.238281-2.640625-.40625-5.296875-.40625-8 .0625-6.015625.746094-12.011719 2.039062-17.886719l35.890626 9.597656c.671874.1875 1.371093.28125 2.070312.289063 4.015625 0 7.410156-2.972656 7.933594-6.957031.527344-3.980469-1.980469-7.734375-5.863282-8.769532l-35.460937-9.503906c7.582031-18.609375 21.300781-34.066406 38.878906-43.800781 1.609375-.886719 2.863281-2.300781 3.550781-4l22.960938-57.433594 18.175781 45.441407c1.214844 3.035156 4.15625 5.023437 7.425781 5.023437h76.796876c3.269531 0 6.210937-1.988281 7.425781-5.023437l18.175781-45.441407 22.960938 57.410157c.6875 1.699218 1.941406 3.113281 3.550781 4 17.578125 9.734374 31.296875 25.191406 38.878906 43.796874l-35.460937 9.503907c-3.929688 1-6.488282 4.78125-5.960938 8.796875.53125 4.019531 3.980469 7.007812 8.03125 6.957031.699219 0 1.394531-.09375 2.070312-.273437l35.890626-9.597657c1.289062 5.871094 1.972656 11.859375 2.039062 17.871094 0 2.703125-.167969 5.359375-.40625 8h-39.59375c-4.417969 0-8 3.582031-8 8s3.582031 8 8 8h36.59375c-2.292969 8.046875-5.722656 15.722656-10.195312 22.792969l-24.320313-6.519532c-4.265625-1.144531-8.652344 1.386719-9.796875 5.65625-1.144531 4.265626 1.386719 8.652344 5.65625 9.796876l17.804688 4.800781c-16.5625 17.539062-39.621094 27.476562-63.742188 27.472656h-96c-24.125-.007813-47.179688-9.957031-63.734375-27.503906l17.804687-4.800781c4.253907-1.144532 6.78125-5.511719 5.65625-9.765626zm56.273438 202.070313c-.011719 10.167969-6.417969 19.230469-16 22.632813v-56.847657l2.0625-.679687c4.570312-1.496094 9.222656-2.714844 13.9375-3.640625zm64 22.632813c-9.582031-3.402344-15.988281-12.464844-16-22.632813v-38.535156c4.726562.933593 9.394531 2.15625 13.976562 3.65625l2.023438.664062zm96-126.632813v112c0 22.089844-17.910156 40-40 40s-40-17.910156-40-40v-48c0-.113281-.054688-.207031-.0625-.320313-.054688-.566406-.164062-1.128906-.335938-1.671874-.089843-.460938-.214843-.914063-.386718-1.351563-.242188-.457031-.53125-.882813-.863282-1.28125-.265624-.417969-.570312-.8125-.910156-1.175781-.84375-.597656-1.726562-1.132813-2.648437-1.597656-.105469 0-.175781-.121094-.289063-.160157l-7.480468-2.464843c-8.761719-2.917969-17.800782-4.917969-26.976563-5.976563h-.046875c-10.628906-1.25-21.371094-1.25-32 0-9.164062 1.039063-18.199219 3.019531-26.960938 5.910156l-7.511718 2.480469c-.113282.042969-.183594.128906-.289063.160156-.921875.464844-1.804687 1-2.644531 1.601563-.34375.359375-.648438.753906-.914062 1.175781-.332032.394531-.621094.824219-.863282 1.28125-.167968.4375-.296875.890625-.382812 1.351562-.171875.542969-.285156 1.101563-.335938 1.671876 0 .109374-.066406.207031-.066406.320312v48c.015625 22.097656-17.890625 40.023438-39.992188 40.039062-22.097656.011719-40.027343-17.890624-40.039062-39.992187v-112c.023438-26.042969 18.046875-48.613281 43.441406-54.398437 15.914063 9.417968 34.066406 14.390624 52.558594 14.398437h96c16.230469-.007813 32.234375-3.847656 46.703125-11.199219 1.121094.496094 2.273437 1.054688 3.480469 1.71875 1.78125.898438 3.492187 1.933594 5.121094 3.089844 15.457031 10.371094 24.71875 27.773438 24.695312 46.390625zm164.039062-241.832031c-3.511718 36.230468-23.296874 68.898437-53.773437 88.800781l-94.328125 61.597656-5.457031-1.460937c4.800781-8.488282 8.375-17.617188 10.617187-27.105469h10.902344c4.417969 0 8-3.582031 8-8s-3.582031-8-8-8h-8.40625v-.082031l87.644531-59.03125c15.496094-10.351563 24.789063-27.769532 24.761719-46.40625v-46.480469c0-4.417969 3.582031-8 8-8h16c4.226562-.039063 7.742188 3.238281 8 7.457031 0 .214844-1.519531 22.398438-3.960938 46.710938zm0 0"/><path d="m120 176.015625c17.671875 0 32-14.328125 32-32s-14.328125-32-32-32-32 14.328125-32 32 14.328125 32 32 32zm0-48c8.835938 0 16 7.164063 16 16s-7.164062 16-16 16-16-7.164063-16-16 7.164062-16 16-16zm0 0"/><path d="m216 176.015625c17.671875 0 32-14.328125 32-32s-14.328125-32-32-32-32 14.328125-32 32 14.328125 32 32 32zm0-48c8.835938 0 16 7.164063 16 16s-7.164062 16-16 16-16-7.164063-16-16 7.164062-16 16-16zm0 0"/><path d="m139.710938 202.359375c-3.121094 3.125-3.121094 8.1875 0 11.3125l22.632812 22.632813c3.125 3.121093 8.1875 3.121093 11.3125 0l22.632812-22.632813c3.03125-3.140625 2.988282-8.128906-.097656-11.214844-3.085937-3.085937-8.078125-3.128906-11.214844-.097656l-16.976562 16.976563-16.976562-16.976563c-3.125-3.125-8.1875-3.125-11.3125 0zm0 0"/></svg>